<svg width="50" height="50" viewBox="0 0 50 50" fill="none" xmlns="http://www.w3.org/2000/svg">
<path d="M38.75 0H11.25C5.03625 0 0 5.03625 0 11.25V38.75C0 44.9638 5.03625 50 11.25 50H38.75C44.9638 50 50 44.9638 50 38.75V11.25C50 5.03625 44.9638 0 38.75 0ZM41.4875 20.3175C42.3 19.9687 43.2625 19.9212 44.075 20.1662C44.4125 20.2712 44.7125 20.4113 45 20.585V22.1225C44.1 21.505 43.0625 21.33 42.2625 21.7613C41.4125 22.2275 40.9125 23.205 40.9375 24.23C40.925 25.36 41.3 26.4075 42.0875 26.8963C42.7875 27.3738 43.8875 27.3738 45 27.1988V28.48C44.5625 28.62 44.1 28.7012 43.625 28.7475C42.8375 28.8063 41.9625 28.6887 41.1875 28.27C40.4 27.8625 39.825 27.1525 39.5 26.4412C39.1875 25.7075 39.075 24.9625 39.0625 24.2512C39.025 22.7387 39.8375 21.0387 41.4875 20.3175ZM36.25 16.2625C36.94 16.2625 37.5 16.8225 37.5 17.5125C37.5 18.2025 36.94 18.7625 36.25 18.7625C35.56 18.7625 35 18.2025 35 17.5125C35 16.8225 35.56 16.2625 36.25 16.2625ZM37.1875 20.0125V28.7625H35.3125V20.0125H37.1875ZM27.5 26.4687C28.3 26.795 29.275 27.1337 30.0375 27.2062C30.8 27.2913 31.6375 27.1937 32.125 26.9275C32.3625 26.7825 32.4125 26.58 32.4125 26.355C32.4125 26.13 32.3675 26.0025 32.2587 25.8337C32.06 25.5262 31.5125 25.2938 30.65 25.0875C30.225 24.9662 29.7625 24.845 29.25 24.5675C28.7375 24.3375 27.6962 23.5025 27.8988 22.0788C28.0075 21.3175 28.7963 20.5725 29.9 20.225C31.1862 19.8188 32.5875 20.02 33.75 20.5763V22.125C32.7125 21.5925 31.475 21.3238 30.425 21.6738C30.1125 21.77 29.7 21.9875 29.7 22.3787C29.7 23.3175 30.7875 23.495 31.2 23.6287C31.625 23.7613 32.0875 23.8825 32.5875 24.1363C33.0875 24.3788 34.09 24.9837 34.09 26.365C34.09 27.6875 33.4375 28.1737 32.9 28.3912C31.7875 28.875 30.8 28.79 29.8375 28.6575C29.025 28.5125 28.2375 28.27 27.5 27.8113V26.4687ZM19.0625 20.015L20.9375 20.0125L20.9413 23.0375C20.9588 24.025 20.9563 25.1012 20.945 26.0162C20.9013 26.505 21.4475 27.075 22.165 27.1625C22.5475 27.205 22.8325 27.1738 23.2725 26.9875C23.5325 26.885 23.7975 26.7975 24.0625 26.7062V20.0125L25.9375 20.0137V28.5363H24.0625V28.2413C24.0112 28.2687 23.9625 28.2987 23.9125 28.325C23.4362 28.61 22.6725 28.8075 22.02 28.7538C21.3425 28.71 20.66 28.4725 20.1038 28.0212C19.5512 27.5762 19.1338 26.8775 19.08 26.11C19.0462 25.01 19.055 24.0675 19.0663 23.0387L19.0625 20.015ZM5.3125 20.0125H7.1875V20.8725C7.65 20.705 8.10875 20.53 8.57375 20.3713C9.2425 20.1338 10.0812 20.1813 10.74 20.5475C11.0125 20.6938 11.2512 20.9 11.4612 21.1337C12.1637 20.8737 12.865 20.6125 13.5725 20.37C14.2412 20.1325 15.08 20.18 15.7387 20.5463C16.4037 20.9037 16.9212 21.5575 17.105 22.3187C17.1537 22.5087 17.175 22.7012 17.1863 22.895L17.1913 23.2912L17.1988 24.0725L17.1913 25.635L17.1875 28.76H15.3125L15.305 22.705C15.2525 22.1738 14.6563 21.7088 14.0313 21.8788C13.3938 22.0475 12.7513 22.1975 12.11 22.3525C12.1525 22.5312 12.175 22.7113 12.1862 22.8938L12.1913 23.29L12.1987 24.0712L12.1913 25.6337L12.1875 28.7587H10.3125L10.305 22.7038C10.2525 22.1712 9.65625 21.7075 9.03125 21.8775C8.42 22.04 7.8025 22.1837 7.1875 22.3325V28.7575H5.3125V20.0125ZM42.21 36.165C39.4425 38.1275 36.35 39.4212 33.1037 40.2612C29.86 41.09 26.4825 41.4038 23.1212 41.1725C19.7613 40.9475 16.48 40.1275 13.3875 38.93C10.305 37.6925 7.39125 36.1013 4.81625 34.0163C4.6825 33.9075 4.66125 33.71 4.77 33.5763C4.86625 33.4575 5.03125 33.4275 5.16125 33.4975L5.17875 33.5075C7.99 35.0287 10.995 36.1937 14.0125 37.1187C17.0537 37.9837 20.1488 38.6025 23.2625 38.7288C26.3688 38.8375 29.5088 38.595 32.5738 37.9575C35.6262 37.3275 38.705 36.4125 41.5363 35.1088L41.585 35.0863C41.8988 34.9425 42.2687 35.0787 42.4137 35.3925C42.5437 35.6712 42.4513 35.995 42.21 36.165ZM43.6025 39.865C43.255 40.1275 42.9075 40.04 43.0813 39.6025C43.6025 38.2025 44.7312 35.2262 44.21 34.5262C43.6025 33.7387 40.4763 34.1762 39.0875 34.3512C38.6538 34.3512 38.6538 34.0012 39.0013 33.7387C40.2163 32.8637 41.8663 32.5137 43.2562 32.5137C44.645 32.5137 45.8612 32.7762 46.1212 33.2137C46.5538 33.7375 45.9462 37.8512 43.6025 39.865Z" fill="white"/>
</svg>
