<svg width="206" height="50" viewBox="0 0 206 50" fill="none" xmlns="http://www.w3.org/2000/svg">
<g clip-path="url(#clip0_52_22)">
<path fill-rule="evenodd" clip-rule="evenodd" d="M88.0933 49.085V15.7155H87.8759L74.4528 49.085H69.3287L55.8737 15.7155H55.6586V49.085H49.3634V3.74465H57.3559L71.7673 39.8771H72.0142L86.3935 3.74724H94.4181V49.0875H88.0933V49.085ZM129.227 49.085H122.838V43.4926H122.685C120.894 47.4516 117.593 49.6806 112.624 49.6806C105.558 49.6806 101.234 45.0001 101.234 37.4282V16.0294H107.9V36.1083C107.9 41.135 110.248 43.8361 114.843 43.8361C119.661 43.8361 122.561 40.4431 122.561 35.2905V16.0294H129.225V49.085H129.227ZM147.495 15.4312C155.055 15.4312 159.962 19.7067 160.179 25.8007H153.914C153.543 22.598 151.228 20.5864 147.495 20.5864C143.883 20.5864 141.476 22.3756 141.476 25.0173C141.476 27.0908 142.959 28.5018 146.475 29.3198L151.752 30.5455C158.388 32.1171 160.918 34.7567 160.918 39.531C160.918 45.5659 155.394 49.7127 147.742 49.7127C139.626 49.7127 134.746 45.6598 134.131 39.3754H140.735C141.353 42.8303 143.668 44.528 147.742 44.528C151.752 44.528 154.223 42.8303 154.223 40.1292C154.223 37.9916 153.019 36.7361 149.469 35.9181L144.192 34.6628C138.02 33.217 134.964 30.1997 134.964 25.3955C134.964 19.4867 140.026 15.4312 147.495 15.4312ZM165.543 7.29585C165.543 5.12627 167.273 3.39881 169.4 3.39881C171.529 3.39881 173.229 5.12864 173.229 7.29585C173.229 9.43089 171.529 11.1907 169.4 11.1907C168.331 11.1819 167.422 10.7976 166.67 10.0379C165.918 9.27869 165.543 8.36445 165.546 7.29585H165.543ZM166.067 16.0294H172.733V49.085H166.067V16.0294ZM200.876 27.4047C200.196 23.8855 197.605 21.0881 193.254 21.0881C188.1 21.0881 184.705 25.4547 184.705 32.5547C184.705 39.8153 188.13 44.0265 193.315 44.0265C197.417 44.0265 200.105 41.733 200.876 37.8977H207.297C206.588 44.9358 201.064 49.7127 193.256 49.7127C183.967 49.7127 177.919 43.2381 177.919 32.5573C177.919 22.0617 183.967 15.4312 193.195 15.4312C201.558 15.4312 206.65 20.9003 207.235 27.4047H200.878H200.876ZM28.9756 8.16821C27.2512 10.2292 24.5162 11.8653 21.7787 11.6231C21.4203 8.83549 22.7916 5.86501 24.3383 4.0486C26.0602 1.9235 29.035 0.411052 31.4736 0.287354C31.7723 3.19847 30.6433 6.04548 28.978 8.1708L28.9756 8.16821ZM31.4438 12.1693C32.9856 12.2902 37.435 12.7723 40.2838 17.0624C40.0465 17.2453 35.004 20.2058 35.0634 26.4285C35.1226 33.867 41.4696 36.3432 41.529 36.4049C41.4696 36.5877 40.5234 39.9116 38.2085 43.354C36.1901 46.3789 34.1146 49.3397 30.7916 49.4014C27.5871 49.4606 26.5172 47.4663 22.841 47.4663C19.1624 47.4663 17.9738 49.3397 14.9498 49.4606C11.7453 49.5793 9.31666 46.2554 7.2982 43.2331C3.14254 37.129 -4.29153e-06 26.0082 4.27158 18.5129C6.34704 14.7665 10.1443 12.4089 14.2383 12.3472C17.3834 12.2904 20.2915 14.465 22.1888 14.465C24.0886 14.465 27.4686 11.9271 31.4438 12.1667V12.1693Z" fill="white"/>
</g>
<defs>
<clipPath id="clip0_52_22">
<rect width="207.297" height="50" fill="white"/>
</clipPath>
</defs>
</svg>
