<svg width="50" height="50" viewBox="0 0 50 50" fill="none" xmlns="http://www.w3.org/2000/svg">
<g clip-path="url(#clip0_10_124)">
<path d="M46.164 23.7902V3.35639C46.164 1.50141 44.6588 0 42.8078 0H5.68884C3.83767 0 2.33258 1.50141 2.33258 3.35639V40.4712C2.33258 42.3225 3.83779 43.8279 5.68884 43.8279H11.616C12.2227 44.3686 12.8606 44.8818 13.5217 45.364C17.7066 48.3978 22.6187 50 27.7409 50C29.0242 50 30.3233 49.8988 31.599 49.6965C35.8695 49.0197 39.6963 46.9581 42.5821 43.8279H42.8078C44.6591 43.8279 46.164 42.3223 46.164 40.4712V38.2933C47.5448 35.0458 47.9958 31.4636 47.428 27.8936C47.1986 26.4505 46.767 25.074 46.164 23.7902ZM7.29894 35.0966L8.82355 35.178L7.97564 36.4734C7.73469 36.0218 7.50895 35.5629 7.29894 35.0966ZM14.5835 43.9717C14.5719 43.9634 14.5602 43.9559 14.5485 43.9521C14.0156 43.5594 13.5062 43.1511 13.0121 42.7233L14.9451 42.0426L14.5835 43.9717ZM22.0624 47.5108L23.338 46.0327L23.9995 47.9345C23.3458 47.8216 22.7003 47.6779 22.0624 47.5108ZM32.1667 47.8178L32.9136 45.7216L34.2126 47.2542C33.5436 47.4796 32.8666 47.6701 32.1667 47.8178ZM42.2165 41.5639L40.8437 43.007L40.1978 40.806L42.3914 41.3346C42.3332 41.4123 42.2785 41.4901 42.2165 41.5639ZM42.8388 40.7279L39.1865 39.8412L40.3028 43.6412C38.7276 45.0878 36.9037 46.2233 34.9122 46.9973L32.6565 44.3486L31.3731 47.9619C31.3575 47.9656 31.3421 47.9656 31.3263 47.9698C30.1362 48.1602 28.9303 48.2536 27.7404 48.2536C26.741 48.2536 25.7567 48.1718 24.7767 48.0434L23.5944 44.6599L21.3191 47.3003C19.1685 46.6548 17.115 45.6788 15.217 44.3914L15.855 40.9805L12.4171 42.1897C10.8225 40.7043 9.4612 39.0086 8.3684 37.1535L10.068 34.5474L6.98011 34.3763C6.30721 32.7503 5.81731 31.0275 5.53336 29.2465C3.93063 19.1658 7.6487 9.13946 15.4817 2.37227L17.3407 0.972067H33.2358L28.4174 2.37227C17.3917 5.56912 10.185 16.5874 12.0284 28.2161C12.6972 32.4242 14.9686 36.1185 18.4145 38.6236C21.164 40.6187 24.3922 41.6724 27.7565 41.6724C28.6002 41.6724 29.452 41.6064 30.2921 41.4707C35.1693 40.7002 39.3424 35.9747 39.4007 31.1564C39.4315 29.0131 38.6539 27.0803 37.1567 25.5636C35.2314 23.6151 32.1745 22.4483 28.9855 22.4483C27.5697 22.4483 26.2086 22.67 24.9251 23.1134C24.6295 23.2143 24.3378 23.2691 24.0773 23.2691C23.3461 23.2691 23.1632 22.8838 23.0777 22.5106C22.8561 21.5072 24.124 20.2393 24.5441 19.8231C24.6609 19.7065 24.7698 19.5938 24.8632 19.4888C26.3876 18.1469 28.2465 17.2679 30.2534 16.9492C33.8007 16.3891 37.3945 17.2486 40.3032 19.3604C43.22 21.4761 45.1378 24.6032 45.7013 28.1656C46.4089 32.6034 45.3862 37.0489 42.8388 40.7279Z" fill="white"/>
<path d="M29.5687 17.6338C28.4721 17.6338 27.5851 18.5243 27.5851 19.6172C27.5851 20.7138 28.472 21.6045 29.5687 21.6045C30.6654 21.6045 31.5524 20.7138 31.5524 19.6172C31.5523 18.5242 30.6654 17.6338 29.5687 17.6338ZM29.5687 20.9046C28.8608 20.9046 28.2852 20.3289 28.2852 19.6174C28.2852 18.9095 28.8606 18.3338 29.5687 18.3338C30.2766 18.3338 30.8524 18.9095 30.8524 19.6174C30.8523 20.3288 30.2766 20.9046 29.5687 20.9046Z" fill="white"/>
</g>
<defs>
<clipPath id="clip0_10_124">
<rect width="50" height="50" fill="white"/>
</clipPath>
</defs>
</svg>
