<svg width="157" height="50" viewBox="0 0 157 50" fill="none" xmlns="http://www.w3.org/2000/svg">
<path d="M26.8616 0L0 50H57.5134L84.375 0H26.8616ZM84.375 0V49.0417H91.7908V44.165H91.925C94.2625 48.8369 99.4174 50 104.224 50C114.736 50 119.543 41.0013 119.543 31.4575C119.543 21.0856 114.111 12.5671 102.917 12.5671C98.9331 12.5671 94.4682 14.6992 92.3401 18.1335H92.2058V0H84.375ZM140.247 12.5671C128.568 12.5671 122.729 20.9525 122.729 31.665C122.729 42.1057 128.844 50 139.972 50C149.106 50 154.806 44.9148 156.25 35.7117H148.419C147.66 40.796 144.503 43.8232 139.972 43.8232C133.172 43.8232 130.56 37.5713 130.56 31.665C130.56 20.8838 136.261 18.75 140.314 18.75C144.642 18.75 147.8 21.09 148.419 25.415H148.431H156.25C155.497 16.6932 148.487 12.5671 140.247 12.5671ZM101.892 18.75C108.342 18.75 111.71 24.8609 111.713 31.3171C111.713 37.4984 109.036 43.8171 101.892 43.8171C95.5733 43.8171 91.9312 38.4578 91.9312 31.3171C91.9312 23.764 95.3015 18.75 101.892 18.75Z" fill="white"/>
</svg>
