<svg width="67" height="50" viewBox="0 0 67 50" fill="none" xmlns="http://www.w3.org/2000/svg">
<path d="M14.4347 23.1558V23.137V4.37047L14.2615 4.242H14.247L10.3064 1.32619C7.89578 -0.463715 4.46032 -0.377106 2.32399 1.73036C0.894951 3.14496 0 5.10808 0 7.28772V12.4871L14.4347 23.1558ZM51.9649 23.137V23.1558L66.3996 12.4871V7.28772C66.3996 5.13695 65.5335 3.17383 64.1189 1.75923C62.0115 -0.343907 58.6843 -0.59074 56.2896 1.17751L52.1381 4.242L51.9649 4.37047V23.137ZM17.3216 25.2705L32.3424 36.3736C32.8519 36.7504 33.5491 36.7504 34.0587 36.3736L49.078 25.2705V6.50391L33.1998 18.2437L17.3216 6.50391V25.2705ZM51.9649 26.7443V48.5565C51.9649 49.3533 52.6116 50 53.4084 50H62.7909C64.7844 50 66.3996 48.3848 66.3996 46.3913V16.0741L51.9649 26.7443ZM14.4347 26.7443L0 16.0741V46.3913C0 48.3848 1.61524 50 3.60868 50H12.9912C13.788 50 14.4347 49.3533 14.4347 48.5565V26.7443Z" fill="white"/>
</svg>
