<svg width="108" height="50" viewBox="0 0 108 50" fill="none" xmlns="http://www.w3.org/2000/svg">
<rect width="108" height="50" fill="white"/>
<path d="M46.5042 20.7777C46.5042 22.1325 46.2472 22.9567 45.6624 23.5314C45.1678 23.9735 44.5341 24.2141 43.88 24.2083C43.0246 24.2083 42.3109 23.9139 41.6553 23.2811L42.7677 21.8792C43.0101 22.2477 43.3233 22.439 43.6948 22.439C43.8754 22.4446 44.053 22.3905 44.2018 22.2846C44.3506 22.1787 44.4628 22.0265 44.522 21.8502C44.6189 21.5708 44.65 21.2904 44.65 20.4663V14.1519H46.5042V20.7777Z" fill="black"/>
<path d="M54.9324 17.5975V23.973H53.2072V23.1489C52.6515 23.8709 52.0377 24.1793 51.1823 24.1793C49.4426 24.1793 48.145 22.7213 48.145 20.7747C48.145 18.8602 49.4571 17.3882 51.1513 17.3882C51.9931 17.3882 52.6059 17.6976 53.2043 18.4186V17.5945L54.9324 17.5975ZM49.9265 20.7777C49.9329 21.2454 50.1163 21.6919 50.4376 22.0216C50.7588 22.3513 51.1923 22.538 51.6452 22.5418C52.0981 22.5456 52.5345 22.3662 52.8609 22.0419C53.1873 21.7176 53.3777 21.2742 53.3915 20.8068C53.3985 20.5685 53.3593 20.3313 53.2763 20.1089C53.1933 19.8865 53.0681 19.6835 52.908 19.5118C52.748 19.34 52.5563 19.203 52.3443 19.1088C52.1323 19.0146 51.9042 18.9651 51.6733 18.9632C51.4425 18.9612 51.2137 19.0069 51.0002 19.0976C50.7867 19.1882 50.5929 19.322 50.4302 19.491C50.2675 19.66 50.1391 19.8609 50.0526 20.0819C49.9661 20.3028 49.9232 20.5394 49.9265 20.7777Z" fill="black"/>
<path d="M58.3547 17.5976V18.3336C58.9249 17.6567 59.4816 17.3914 60.237 17.3914C61.0924 17.3914 61.6917 17.7448 62.162 18.5549C62.6469 17.7749 63.317 17.3914 64.1869 17.3914C64.9288 17.3914 65.5843 17.7448 65.9121 18.3046C66.14 18.6871 66.2399 19.1437 66.2399 19.8507V23.9732H64.5147V20.4835C64.5147 19.9678 64.4866 19.7325 64.3721 19.4671C64.2977 19.2943 64.1747 19.1485 64.0191 19.0487C63.8634 18.9489 63.6824 18.8997 63.4993 18.9074C63.2896 18.9019 63.0828 18.9585 62.9034 19.0707C62.7239 19.1829 62.5794 19.3458 62.4869 19.5402C62.3589 19.8196 62.3017 20.141 62.3017 20.7038V23.9722H60.5794V20.5866C60.5794 20.0419 60.5512 19.7625 60.4514 19.5262C60.3719 19.3411 60.2419 19.184 60.0772 19.074C59.9125 18.9641 59.7203 18.9062 59.5243 18.9074C59.3284 18.909 59.1362 18.9627 58.9663 19.0634C58.7964 19.1641 58.6546 19.3083 58.5545 19.4822C58.4119 19.7475 58.3547 20.083 58.3547 20.7048V23.9732H56.6285V17.5976H58.3547Z" fill="black"/>
<path d="M69.3771 21.0721C69.4198 22.1736 69.9473 22.7804 70.8889 22.7804C71.5445 22.7804 71.9557 22.5301 72.3581 21.9263L73.9554 22.1916C73.4278 23.5024 72.3872 24.1793 70.9326 24.1793C68.9223 24.1793 67.6102 22.8395 67.6102 20.7927C67.6102 18.746 68.8796 17.3882 70.8472 17.3882C72.8149 17.3882 74.0135 18.6989 74.0135 20.8338V21.0691L69.3771 21.0721ZM72.3572 19.9386C72.172 19.1135 71.658 18.6719 70.888 18.6719C70.118 18.6719 69.5904 19.1435 69.4333 19.9386H72.3572Z" fill="black"/>
<path d="M77.0965 17.5976V18.3927C77.6386 17.6707 78.1942 17.3914 79.036 17.3914C79.7633 17.3914 80.4189 17.6707 80.833 18.1574C81.1898 18.584 81.3179 19.0586 81.3179 19.9248V23.9742H79.5868V20.4394C79.5868 19.9097 79.5441 19.6294 79.4161 19.4091C79.2455 19.0996 78.8595 18.9084 78.4037 18.9084C77.5193 18.9084 77.0916 19.4681 77.0916 20.6758V23.9742H75.3664V17.5976H77.0965Z" fill="black"/>
<path d="M89.4687 12.9444V23.9732H87.7435V23.1491C87.1878 23.8711 86.574 24.1795 85.7186 24.1795C83.9789 24.1795 82.6813 22.7215 82.6813 20.7749C82.6813 18.8603 83.9934 17.3884 85.6876 17.3884C86.5294 17.3884 87.1423 17.6978 87.7406 18.4187V12.9414L89.4687 12.9444ZM84.4667 20.7779C84.4731 21.2456 84.6565 21.692 84.9778 22.0217C85.299 22.3515 85.7325 22.5382 86.1854 22.542C86.6383 22.5458 87.0747 22.3663 87.4011 22.0421C87.7275 21.7178 87.9179 21.2744 87.9316 20.8069C87.9386 20.5687 87.8995 20.3315 87.8165 20.1091C87.7335 19.8867 87.6082 19.6837 87.4482 19.5119C87.2882 19.3402 87.0965 19.2032 86.8845 19.109C86.6725 19.0148 86.4443 18.9653 86.2135 18.9633C85.9827 18.9614 85.7539 19.0071 85.5404 19.0977C85.3269 19.1884 85.1331 19.3221 84.9704 19.4912C84.8077 19.6602 84.6793 19.8611 84.5928 20.0821C84.5063 20.303 84.4634 20.5396 84.4667 20.7779Z" fill="black"/>
<path d="M97.897 20.7778C97.897 22.7955 96.4423 24.1824 94.3321 24.1824C92.2646 24.1824 90.8409 22.7805 90.8409 20.7368C90.8409 18.7932 92.3237 17.3943 94.3922 17.3943C96.4607 17.3943 97.897 18.7751 97.897 20.7778ZM92.6205 20.7628C92.6135 21.1211 92.7102 21.4733 92.8981 21.7746C93.0859 22.0759 93.3565 22.3125 93.6753 22.4543C93.994 22.596 94.3465 22.6364 94.6876 22.5703C95.0286 22.5043 95.3429 22.3347 95.5903 22.0833C95.8376 21.8319 96.0067 21.5101 96.0761 21.159C96.1454 20.8079 96.1118 20.4434 95.9796 20.1121C95.8474 19.7808 95.6225 19.4977 95.3337 19.299C95.0449 19.1002 94.7053 18.9949 94.3583 18.9964C93.4186 18.9964 92.6205 19.8065 92.6205 20.7638V20.7628Z" fill="black"/>
<path d="M56.518 34.1317L55.7975 35.8811H54.1401L57.6119 27.4368H58.7892L62.1523 35.8841H60.4824L59.7978 34.1347L56.518 34.1317ZM58.186 29.853L57.0223 32.83H59.3051L58.186 29.853Z" fill="black"/>
<path d="M64.3624 30.5098V31.3279C64.7348 30.646 65.2148 30.3356 65.8762 30.3356C66.0959 30.3304 66.3138 30.3769 66.5133 30.4718L66.3087 31.8737C66.1002 31.7403 65.8574 31.6754 65.6124 31.6874C65.4398 31.6783 65.2673 31.7081 65.1068 31.7746C64.9464 31.8412 64.8019 31.943 64.6834 32.0729C64.4429 32.3583 64.3595 32.6928 64.3595 33.3006V35.88H62.9048V30.5098H64.3624Z" fill="black"/>
<path d="M69.0716 35.881H67.617V31.8125H67.04V30.5108H67.617V28.6743H69.0716V30.5098H70.1044V31.8115H69.0716V35.881Z" fill="black"/>
<path d="M72.5667 28.2379C72.5667 28.4161 72.5155 28.5904 72.4196 28.7386C72.3237 28.8868 72.1874 29.0023 72.0279 29.0705C71.8684 29.1387 71.6929 29.1566 71.5236 29.1218C71.3543 29.087 71.1988 29.0012 71.0767 28.8751C70.9547 28.7491 70.8716 28.5885 70.8379 28.4137C70.8042 28.2389 70.8215 28.0577 70.8875 27.893C70.9536 27.7283 71.0655 27.5876 71.209 27.4886C71.3525 27.3895 71.5213 27.3367 71.6939 27.3367C71.8087 27.3359 71.9226 27.3587 72.0288 27.4037C72.1351 27.4487 72.2316 27.515 72.3128 27.5989C72.394 27.6827 72.4582 27.7824 72.5018 27.8921C72.5454 28.0018 72.5675 28.1193 72.5667 28.2379ZM72.4106 35.8781H70.9559V30.5099H72.4106V35.8781Z" fill="black"/>
<path d="M76.663 31.7627C76.3507 31.5143 76.0859 31.4032 75.7979 31.4032C75.474 31.4032 75.2335 31.6035 75.2335 31.8618C75.2335 32.1201 75.3897 32.2213 76.0627 32.4576C76.6513 32.6689 76.8317 32.758 77.0722 32.9412C77.4601 33.2146 77.6492 33.6232 77.6492 34.1318C77.6492 35.2604 76.7483 36.0544 75.4634 36.0544C75.0927 36.0559 74.7259 35.9771 74.3865 35.8233C74.0471 35.6694 73.7427 35.4439 73.4928 35.1612L74.2492 34.243C74.6701 34.6766 75.0541 34.8758 75.4866 34.8758C75.859 34.8758 76.147 34.6155 76.147 34.28C76.147 33.9696 76.0025 33.8585 75.3421 33.6101C74.6817 33.3618 74.5731 33.3097 74.3452 33.1385C73.9971 32.8902 73.8283 32.5187 73.8283 32.022C73.8283 31.0207 74.5974 30.3107 75.6903 30.3107C76.301 30.2999 76.8975 30.5008 77.3845 30.8815L76.663 31.7627Z" fill="black"/>
<path d="M80.3025 35.881H78.8478V31.8125H78.2708V30.5108H78.8478V28.6743H80.3025V30.5098H81.3353V31.8115H80.3025V35.881Z" fill="black"/>
<path d="M84.9874 31.7627C84.6752 31.5143 84.4104 31.4032 84.1224 31.4032C83.7985 31.4032 83.558 31.6035 83.558 31.8618C83.558 32.1201 83.7141 32.2213 84.3871 32.4576C84.9758 32.6689 85.1562 32.758 85.3967 32.9412C85.7846 33.2146 85.9737 33.6232 85.9737 34.1318C85.9737 35.2604 85.0728 36.0544 83.7878 36.0544C83.4172 36.0559 83.0503 35.9771 82.7109 35.8233C82.3715 35.6694 82.0671 35.4439 81.8173 35.1612L82.5737 34.243C82.9946 34.6766 83.3786 34.8758 83.8111 34.8758C84.1835 34.8758 84.4715 34.6155 84.4715 34.28C84.4715 33.9696 84.327 33.8585 83.6666 33.6101C83.0062 33.3618 82.8976 33.3097 82.6697 33.1385C82.3215 32.8902 82.1528 32.5187 82.1528 32.022C82.1528 31.0207 82.9218 30.3107 84.0148 30.3107C84.6254 30.2999 85.222 30.5008 85.7089 30.8815L84.9874 31.7627Z" fill="black"/>
<path d="M22.4171 12.5549L32.8547 18.7773V31.223L22.4171 37.4453L11.9795 31.223V18.7783L22.4171 12.5559M22.4171 10.4531L10.2175 17.7239V32.2734L22.4171 39.5461L34.6207 32.2734V17.7239L22.4171 10.4541V10.4531Z" fill="black"/>
<path d="M19.5893 29.2473H17.8796L21.9739 20.7539H23.6865L19.5893 29.2473Z" fill="black"/>
<path d="M26.1236 29.2473H24.4109L28.5053 20.7539H30.2179L26.1236 29.2473Z" fill="black"/>
<path d="M16.3289 29.2472H14.6163L16.6635 25.0005H18.3761L16.3289 29.2472Z" fill="black"/>
<path d="M24.9065 25.0006H23.1939L25.2411 20.7539H26.9537L24.9065 25.0006Z" fill="black"/>
</svg>
