<svg width="98" height="12" viewBox="0 0 98 12" fill="none" xmlns="http://www.w3.org/2000/svg">
<path d="M87.267 4.05607H90.3281C94.0595 4.05607 97.4193 4.77411 97.394 7.53354C97.394 10.1561 93.6119 11.0716 90.4273 11.0716C86.3951 11.0716 83.3213 10.1724 83.3087 7.63975V7.2892H87.1403V7.63975H87.1424C87.1424 8.60213 88.9327 8.96766 90.3756 8.96766C91.3214 8.96766 93.5602 8.75459 93.5602 7.53419C93.5845 6.34441 91.4956 6.10072 90.326 6.10072H83.6549V0.275617H96.4208V2.41019H87.2659L87.267 4.05607ZM70.357 10.9335H63.213V0.260631H70.3559C76.3515 0.260631 79.0147 2.72881 79.0147 5.52082C79.0147 8.31152 76.4528 10.9335 70.357 10.9335ZM70.357 2.41084H67.0447V8.73896H70.3559C74.138 8.73896 75.1841 7.02987 75.1841 5.49084C75.1841 3.95051 73.9892 2.41019 70.3559 2.41019L70.357 2.41084ZM45.7837 5.26605V10.9335H41.9055V0.115329L42.4502 0.0566872L52.9952 5.89221V0.260631H56.8765V11.114L56.4722 11.157L45.7847 5.2667L45.7837 5.26605ZM27.8012 11.1954C22.2279 11.1954 18.3931 9.07322 18.3931 5.59705C18.3931 2.11958 22.2268 0 27.8012 0C33.3746 0 37.2083 2.11958 37.2083 5.59705C37.2083 9.07322 33.3767 11.1941 27.8012 11.1941V11.1954ZM27.8012 2.13457C24.4899 2.13457 22.1994 3.65926 22.1994 5.5964C22.1994 7.59414 24.4899 9.04324 27.8023 9.04324C31.1864 9.04324 33.402 7.5785 33.402 5.5964C33.402 3.64362 31.1853 2.13392 27.8023 2.13392L27.8012 2.13457ZM8.21222 7.91471H5.83194V5.73519H8.21222C10.0806 5.73519 10.9989 4.98717 10.9989 4.13361C10.9989 3.28004 10.0542 2.51639 8.21222 2.51639H3.88444V10.9335H0V0.260631H8.21222C12.6667 0.260631 14.8781 2.02836 14.8781 4.088C14.8781 6.22191 12.6392 7.88474 8.21222 7.91471Z" fill="white"/>
</svg>
