<svg width="51" height="50" viewBox="0 0 51 50" fill="none" xmlns="http://www.w3.org/2000/svg">
<path d="M25.0904 0C11.2557 0 0 11.2152 0 25C0 38.7848 11.2557 50 25.0904 50C38.9251 50 50.1808 38.7859 50.1808 25C50.1808 11.2141 38.9251 0 25.0904 0ZM35.7104 36.2369C35.3953 36.7085 34.8762 36.9627 34.3473 36.9627C34.0355 36.9627 33.7203 36.8747 33.4412 36.6889C30.7445 34.8972 26.1711 33.702 22.3544 33.7031C18.3045 33.7053 15.2686 34.6962 15.2381 34.706C14.3832 34.995 13.4552 34.53 13.1695 33.676C12.8838 32.8219 13.3472 31.8984 14.2043 31.6148C14.3483 31.567 17.78 30.4468 22.3544 30.4446C26.1711 30.4424 31.4794 31.4681 35.2568 33.9769C36.0092 34.4767 36.212 35.4883 35.7104 36.2369ZM38.9731 29.5656C38.6187 30.1328 38.0069 30.4446 37.3821 30.4446C37.044 30.4446 36.7016 30.3544 36.3941 30.1621C31.5045 27.1263 26.4797 26.4842 22.1505 26.5222C17.2631 26.5657 13.3549 27.4947 13.2884 27.5142C12.2993 27.7946 11.259 27.2187 10.9766 26.2289C10.6942 25.2369 11.2732 24.2057 12.2677 23.9254C12.5697 23.8396 16.4703 22.8834 21.8103 22.8389C26.6792 22.7987 32.7465 23.5017 38.3755 26.996C39.2511 27.5392 39.5205 28.6909 38.9731 29.5656ZM42.2281 21.7643C41.8214 22.4532 41.0929 22.8367 40.3449 22.8367C39.9698 22.8367 39.5903 22.74 39.2424 22.5379C33.5437 19.2044 26.6149 18.4971 21.8059 18.4906C21.783 18.4906 21.7601 18.4906 21.7372 18.4906C15.9218 18.4906 11.4433 19.5098 11.3986 19.5206C10.2231 19.789 9.05301 19.0654 8.78039 17.8963C8.50778 16.7282 9.23511 15.5613 10.4074 15.2886C10.6091 15.2419 15.394 14.1445 21.7372 14.1445C21.7623 14.1445 21.7874 14.1445 21.8125 14.1445C27.1612 14.1521 34.91 14.9626 41.4517 18.7894C42.4898 19.3978 42.8377 20.7299 42.2281 21.7643Z" fill="white"/>
</svg>
