<svg width="68" height="50" viewBox="0 0 68 50" fill="none" xmlns="http://www.w3.org/2000/svg">
<path d="M65.4663 8.59375C64.8438 5.15747 61.8774 2.65503 58.4351 1.87378C53.2837 0.78125 43.75 0 33.4351 0C23.1262 0 13.4399 0.78125 8.28247 1.87378C4.84619 2.65503 1.87378 4.99878 1.25122 8.59375C0.622559 12.5 0 17.9688 0 25C0 32.0312 0.622559 37.5 1.40381 41.4062C2.03247 44.8425 4.99878 47.345 8.43506 48.1262C13.9038 49.2188 23.2788 50 33.5938 50C43.9087 50 53.2837 49.2188 58.7524 48.1262C62.1887 47.345 65.155 45.0012 65.7837 41.4062C66.4062 37.5 67.1875 31.8726 67.3462 25C67.0288 17.9688 66.2476 12.5 65.4663 8.59375ZM25 35.9375V14.0625L44.0613 25L25 35.9375Z" fill="white"/>
</svg>
