<svg width="50" height="50" viewBox="0 0 50 50" fill="none" xmlns="http://www.w3.org/2000/svg">
<path d="M25 47.9166C37.6565 47.9166 47.9167 37.6564 47.9167 24.9999C47.9167 12.3434 37.6565 2.08325 25 2.08325C12.3435 2.08325 2.08333 12.3434 2.08333 24.9999C2.08333 37.6564 12.3435 47.9166 25 47.9166Z" fill="white"/>
<path d="M25 14.0728C31.026 14.0728 35.9271 18.9739 35.9271 24.9999C35.9271 31.026 31.026 35.927 25 35.927C18.974 35.927 14.0729 31.026 14.0729 24.9999C14.0729 18.9739 18.974 14.0728 25 14.0728ZM25 13.0208C18.3828 13.0208 13.0208 18.3827 13.0208 24.9999C13.0208 31.6171 18.3828 36.9791 25 36.9791C31.6172 36.9791 36.9792 31.6171 36.9792 24.9999C36.9792 18.3827 31.6172 13.0208 25 13.0208Z" fill="black"/>
<path d="M20.8333 30.9894L30.9896 24.7394L20.8333 19.0103V30.9894Z" fill="black"/>
</svg>
