<svg width="211" height="73" viewBox="0 0 211 73" fill="none" xmlns="http://www.w3.org/2000/svg">
<g clip-path="url(#clip0_3_3)">
<path d="M1.78877 53.5159C10.4577 60.1108 38.1474 40.6062 24.7549 22.8866C17.3767 13.1072 3.91623 17.8527 3.51857 24.8115C3.20639 30.228 8.00921 31.2982 8.00921 31.2982C0.737508 28.3887 16.8779 14.3325 23.6352 23.5389C32.6147 35.7654 7.24964 54.6326 2.77324 52.465C-0.0330925 51.1077 5.02283 44.9522 9.79483 41.0564C10.6435 43.4738 13.3981 43.8004 13.3925 43.7689C13.072 42.6881 13.3892 40.6176 13.8622 38.3246C15.4806 37.5518 16.6429 37.5094 16.7651 38.7551C16.7114 38.0822 17.8907 35.9246 15.0844 34.0149L14.7564 33.8128C15.0068 32.4689 15.1738 31.2047 15.1591 30.2C15.0743 26.7706 11.5561 25.7988 11.5987 25.8562C12.0195 26.3994 11.1309 30.9428 10.3982 34.7112C4.30267 38.2881 -3.46224 49.5353 1.78877 53.5159ZM46.5059 48.7505C46.5059 48.7505 44.6972 44.9427 49.4192 27.3109C50.009 25.1273 45.9276 21.3303 45.9387 21.3934C46.0072 22.5186 41.4402 31.9997 41.1453 32.5391C41.0471 32.7188 42.1524 28.8522 41.7059 27.2412C40.987 24.6385 38.3828 22.9531 38.303 23.4221C38.0043 25.2294 34.4608 32.7754 34.3514 32.8922C34.2421 33.0089 35.7664 28.386 35.4518 25.1271C35.2148 22.8619 31.35 21.3987 31.4371 21.7083C32.2505 24.8468 30.3756 30.2464 29.7631 35.6183C29.5497 37.5406 32.6562 40.0473 32.6914 39.8786C33.8746 35.9007 37.9539 27.7078 37.9038 27.9766C37.8593 28.2769 36.9226 32.1788 37.2061 33.2336C37.7471 35.3803 40.2604 37.4717 40.4347 36.986C40.8297 35.9091 44.9648 26.3741 44.9648 26.3741C44.9648 26.3741 43.4143 32.6914 43.4283 38.6677C43.474 42.9813 46.5059 48.7505 46.5059 48.7505ZM52.7548 61.8159C55.1184 61.3991 58.1935 49.3541 59.8354 39.3165C61.8729 37.2351 66.8747 34.2736 67.8696 38.2573C67.8696 38.2573 67.6796 31.4671 60.4904 35.1068C61.279 29.4439 62.2588 21.7326 61.8419 20.4738C60.8821 17.4262 58.3391 15.5351 58.3446 15.5666C58.7931 16.2673 58.3031 21.2278 57.5923 26.7796C56.4391 28.3476 55.0578 30.2809 53.3502 32.759C53.2779 32.9018 55.7927 24.4974 55.4741 22.5065C54.9778 19.5071 51.5561 17.6084 51.5987 17.6659C53.4503 19.3215 48.7531 31.75 49.5741 33.4574C50.4062 35.2278 52.8269 36.4256 52.8789 36.3515C54.4123 33.2541 56.0273 30.4349 57.4179 28.37C56.9929 31.8568 56.0245 37.4215 56.0245 37.4215C52.1516 40.7039 46.9064 47.9975 47.0687 54.0777C47.1703 57.0492 51.4943 62.0381 52.7548 61.8159ZM50.1916 58.3361C48.32 53.987 55.362 42.5098 55.3675 42.5414C54.0485 49.9875 50.4603 58.9386 50.1916 58.3361ZM65.9683 34.011C64.8771 29.2968 67.4442 18.0563 68.5685 11.1643C75.6705 8.31988 85.0099 5.08089 84.2864 9.27018C84.266 9.33876 86.6228 3.7242 81.8292 3.07474C78.7002 2.65166 73.7153 4.60292 69.0418 6.66174C69.0141 6.50417 69.0122 6.30953 68.99 6.18347C68.414 2.54827 64.1988 1.86181 64.2729 1.91372C65.2849 2.67759 65.3087 5.20791 64.9134 8.49448C60.1453 10.57 56.4544 11.9356 56.6364 9.46653C56.6253 9.4035 55.9293 15.96 61.2367 14.1793C61.7873 13.9847 62.8773 13.5326 64.2714 12.9618C63.3382 18.3579 62.0472 24.3044 62.1394 27.4075C62.3166 32.8352 65.9739 34.0425 65.9683 34.011ZM78.7208 13.7934C78.7208 13.7934 74.5029 18.4363 73.8762 20.0415C73.8558 20.1101 73.9875 19.567 73.9283 18.3102C73.8544 16.601 69.8117 14.6819 69.9618 14.9804C70.8235 17.103 68.405 26.2377 68.7106 27.971C69.1607 30.5236 72.2543 32.7726 72.5934 33.0377C71.4684 32.0013 72.3799 22.06 77.0297 17.4709C77.0612 17.4653 76.0894 20.4311 76.2728 21.4711C76.7729 24.3073 80.0799 24.634 80.0317 24.5451C79.1625 23.3011 80.1658 20.3297 81.5305 17.1972C82.1999 15.6494 78.7208 13.7934 78.7208 13.7934ZM72.5934 33.0377L72.6305 33.0637L72.5934 33.0377ZM86.3276 30.4535C90.0295 30.2557 92.3103 24.947 92.3418 24.9415C99.1249 22.3157 97.6872 16.5579 97.5536 17.4587C97.1566 19.9983 93.5899 21.1471 93.5899 21.1471C93.5899 21.1471 95.1494 17.4603 93.4963 13.9825C89.7177 6.00544 77.8767 16.2492 82.3691 23.483C82.4061 23.509 81.5253 26.0689 82.1109 27.3628C82.7446 28.7458 85.1709 30.5275 86.3276 30.4535ZM89.1649 22.2198C89.0667 22.3996 86.4325 22.5716 86.4937 22.3658C87.7938 17.9449 88.8207 18.0563 88.8207 18.0563C86.0721 14.9991 83.9545 19.7592 83.9489 19.7277C80.7858 11.7396 97.038 6.24188 89.1649 22.2198ZM85.3214 28.064C85.0601 27.6876 85.5386 25.4262 85.5757 25.4521C86.3097 25.7451 87.4238 25.6137 87.4238 25.6137C87.4294 25.6452 85.8125 28.8222 85.3214 28.064Z" fill="white"/>
<path d="M70.7888 68.1564C79.4577 74.7513 107.147 55.2467 93.7549 37.5271C86.3767 27.7477 72.9162 32.4932 72.5186 39.452C72.2064 44.8685 77.0092 45.9387 77.0092 45.9387C69.7375 43.0292 85.8779 28.973 92.6352 38.1794C101.615 50.4059 76.2496 69.2731 71.7732 67.1055C68.9669 65.7482 74.0228 59.5927 78.7948 55.6969C79.6435 58.1143 82.3981 58.4409 82.3925 58.4094C82.072 57.3286 82.3892 55.2581 82.8622 52.9651C84.4806 52.1923 85.6429 52.1499 85.7651 53.3956C85.7114 52.7227 86.8907 50.5651 84.0844 48.6554L83.7564 48.4533C84.0068 47.1094 84.1738 45.8452 84.1591 44.8405C84.0743 41.4111 80.5561 40.4393 80.5987 40.4967C81.0195 41.0399 80.1309 45.5833 79.3982 49.3517C73.3027 52.9286 65.5378 64.1758 70.7888 68.1564ZM101.714 54.0927C103.182 54.6787 106.667 53.8042 108.402 50.9312C110.132 48.0267 107.154 46.2449 107.298 46.5118C108.182 48.2081 103.707 51.7592 100.772 51.8867C100.724 50.6929 100.851 49.5658 101.088 48.5167C102.43 48.5725 104.931 48.1965 106.937 46.1206C112.653 40.2062 108.959 36.211 107.676 35.7548C104.933 34.9388 97.5483 41.3423 98.2962 48.7165C98.6053 51.9438 100.488 53.5939 101.714 54.0927ZM101.435 47.3507C102.612 43.8937 106.12 39.8309 107.955 38.6299C107.119 40.8895 104.473 44.8653 101.435 47.3507ZM126.8 61.3995C126.8 61.3995 124.992 57.5917 129.714 39.9599C130.303 37.7763 126.222 33.9793 126.233 34.0423C126.302 35.1675 121.735 44.6486 121.44 45.188C121.342 45.3678 122.447 41.5011 122 39.8902C121.282 37.2875 118.677 35.6021 118.598 36.0711C118.299 37.8784 114.755 45.4244 114.646 45.5411C114.537 45.6579 116.061 41.035 115.746 37.7761C115.509 35.5108 111.645 34.0477 111.732 34.3573C112.545 37.4957 110.67 42.8953 110.058 48.2673C109.844 50.1896 112.951 52.6962 112.986 52.5275C114.169 48.5496 118.248 40.3568 118.198 40.6256C118.154 40.9259 117.217 44.8278 117.501 45.8826C118.042 48.0293 120.555 50.1206 120.729 49.635C121.124 48.558 125.259 39.0231 125.259 39.0231C125.259 39.0231 123.709 45.3403 123.723 51.3167C123.769 55.6303 126.8 61.3995 126.8 61.3995ZM133.574 48.5074C135.085 49.1509 138.527 48.2189 140.262 45.3459C141.992 42.4414 139.014 40.6596 139.158 40.9265C140.042 42.6228 135.567 46.1739 132.632 46.3014C132.348 40.0803 137.287 34.3678 139.779 33.0187C139.317 34.8223 137.772 37.8566 135.477 39.9509C135.227 40.19 138.721 40.8412 140.529 38.3779C142.498 35.7236 141.972 31.2672 139.636 30.1843C136.991 29.1885 129.392 35.6625 130.156 43.1312C130.465 46.3585 132.486 48.0494 133.574 48.5074ZM144.813 46.9155C145.142 43.2508 151.251 32.7503 151.129 33.1618C150.986 33.6419 149.506 39.6218 149.806 41.3235C150.106 43.0253 153.439 45.5246 153.417 45.3985C152.715 42.3379 155.593 32.8622 155.326 31.9019C154.961 30.569 152.733 28.0699 152.611 28.4814C152.179 30.0848 146.26 39.6417 145.673 40.9152C145.383 41.4861 148.82 25.413 148.4 23.2126C147.931 20.9232 143.95 19.3507 144.029 19.4341C145.807 21.5902 141.107 40.4529 141.55 42.7794C141.992 45.1059 144.81 47.0786 144.813 46.9155ZM159.048 43.9831C160.516 44.5691 164.001 43.6947 165.737 40.8216C167.467 37.9171 164.488 36.1353 164.632 36.4022C165.516 38.0985 161.041 41.6496 158.107 41.7771C158.059 40.5833 158.185 39.4563 158.422 38.4071C159.764 38.4629 162.265 38.0869 164.271 36.0111C169.987 30.0967 166.293 26.1014 165.01 25.6452C162.267 24.8292 154.883 31.2327 155.63 38.6069C155.94 41.8343 157.823 43.4843 159.048 43.9831ZM158.769 37.2412C159.947 33.7842 163.454 29.7213 165.29 28.5204C164.453 30.7799 161.808 34.7558 158.769 37.2412ZM170.042 42.4995C170.276 41.6134 176.586 28.3807 176.586 29.4855C176.576 30.1695 175.068 36.5442 175.596 37.8808C176.156 39.2119 179.151 41.6406 179.081 40.8732C178.915 38.2706 180.649 29.6789 181.428 26.3571C181.641 25.5397 180.138 23.4651 178.887 23.0034C178.607 22.8903 172.312 34.9181 171.574 36.4455C171.218 37.1906 172.921 31.3665 172.708 28.3171C172.614 26.6766 168.96 24.7538 169.047 25.0634C169.809 27.1711 167.181 36.9602 167.355 38.6842C167.523 40.3766 169.981 42.7052 170.042 42.4995ZM196.273 43.4632C199.661 44.068 200.483 40.8037 200.683 39.7286C199.91 41.977 191.862 39.2695 189.093 32.4141C189.082 32.351 193.459 27.8749 194.405 24.3938C194.752 23.2279 192.96 20.0671 191.972 19.6239C191.232 19.2994 187.767 23.4197 185.856 26.5837C186.798 20.5037 187.889 13.9751 187.556 12.0842C186.917 8.46013 182.953 7.72921 183.028 7.78113C185.978 9.9578 181.036 27.0761 181.309 33.2342C181.581 38.6452 184.986 39.8969 184.975 39.8339C184.49 38.0024 184.559 35.2607 184.893 32.1799C186.372 35.591 190.271 42.4094 196.273 43.4632ZM185.331 30.0556C185.637 27.9221 190.684 20.241 191.616 20.9214C191.727 20.9993 191.712 22.2042 185.331 30.0556ZM200.075 37.2039C203.777 37.0061 206.058 31.6974 206.089 31.6918C212.872 29.0661 211.434 23.3082 211.301 24.2091C210.904 26.7486 207.337 27.8974 207.337 27.8974C207.337 27.8974 208.897 24.2106 207.244 20.7328C203.465 12.7558 191.624 22.9996 196.116 30.2334C196.153 30.2594 195.272 32.8192 195.858 34.1132C196.492 35.4961 198.918 37.2779 200.075 37.2039ZM202.912 28.9701C202.814 29.1499 200.18 29.322 200.241 29.1162C201.541 24.6953 202.568 24.8066 202.568 24.8066C199.819 21.7495 197.702 26.5095 197.696 26.478C194.533 18.4899 210.785 12.9922 202.912 28.9701ZM199.069 34.8143C198.807 34.438 199.286 32.1765 199.323 32.2025C200.057 32.4955 201.171 32.364 201.171 32.364C201.177 32.3955 199.56 35.5726 199.069 34.8143Z" fill="white"/>
</g>
<defs>
<clipPath id="clip0_3_3">
<rect width="211" height="76" fill="white" transform="translate(0 -3)"/>
</clipPath>
</defs>
</svg>
